<svg id="Icons" xmlns="http://www.w3.org/2000/svg" viewBox="0 0 247 235"><style>.st0,.st1{fill:#fff}.st1{stroke:#fff;stroke-width:7;stroke-miterlimit:10}</style><path class="st0" d="M235.5 27.5v196h-224v-196h224m0-8h-224c-4.4 0-8 3.6-8 8v196c0 4.4 3.6 8 8 8h224c4.4 0 8-3.6 8-8v-196c0-4.4-3.6-8-8-8z"/><path class="st0" d="M235.5 235h-224C5.2 235 0 229.8 0 223.5v-196C0 21.2 5.2 16 11.5 16h224c6.3 0 11.5 5.2 11.5 11.5v196c0 6.3-5.2 11.5-11.5 11.5zM8.7 227c.8.6 1.8 1 2.8 1h224c1.1 0 2.1-.4 2.8-1H8.7zM239 24.7v201.7c.6-.8 1-1.8 1-2.8v-196c0-1.2-.4-2.2-1-2.9zm-231 0c-.6.8-1 1.8-1 2.8v196c0 1.1.4 2.1 1 2.8V24.7zM15 220h217V31H15v189zM8.7 24h229.7c-.8-.6-1.8-1-2.8-1h-224c-1.2 0-2.2.4-2.9 1z"/><path class="st0" d="M11.5 63.5h224v8h-224z"/><path class="st0" d="M239 75H8V60h231v15zM15 68h217v-1H15v1zM67.5 43.5c-2.2 0-4-1.8-4-4v-32c0-2.2 1.8-4 4-4s4 1.8 4 4v32c0 2.2-1.8 4-4 4z"/><path class="st0" d="M67.5 47c-4.1 0-7.5-3.4-7.5-7.5v-32C60 3.4 63.4 0 67.5 0S75 3.4 75 7.5v32c0 4.1-3.4 7.5-7.5 7.5zm0-40c-.3 0-.5.2-.5.5v32c0 .3.2.5.5.5s.5-.2.5-.5v-32c0-.3-.2-.5-.5-.5zM179.5 43.5c-2.2 0-4-1.8-4-4v-32c0-2.2 1.8-4 4-4s4 1.8 4 4v32c0 2.2-1.8 4-4 4z"/><path class="st0" d="M179.5 47c-4.1 0-7.5-3.4-7.5-7.5v-32c0-4.1 3.4-7.5 7.5-7.5s7.5 3.4 7.5 7.5v32c0 4.1-3.4 7.5-7.5 7.5zm0-40c-.3 0-.5.2-.5.5v32c0 .3.2.5.5.5s.5-.2.5-.5v-32c0-.3-.2-.5-.5-.5z"/><g><path class="st0" d="M93.2 195.5c-2.2 0-4-1.8-4-4v-78.3l-13.3 13.3c-1.6 1.6-4.1 1.6-5.7 0-1.6-1.6-1.6-4.1 0-5.7l20.2-20.2c1.1-1.1 2.9-1.5 4.4-.9 1.5.6 2.5 2.1 2.5 3.7v88c-.1 2.3-1.9 4.1-4.1 4.1z"/><path class="st0" d="M93.2 199c-4.1 0-7.5-3.4-7.5-7.5v-69.9l-7.4 7.4c-1.4 1.4-3.3 2.2-5.3 2.2s-3.9-.8-5.3-2.2c-1.4-1.4-2.2-3.3-2.2-5.3s.8-3.9 2.2-5.3l20.2-20.2c2.2-2.2 5.4-2.8 8.2-1.6 2.8 1.2 4.6 3.9 4.6 6.9v88c0 4.1-3.4 7.5-7.5 7.5zm-.5-94.3v86.8c0 .3.2.5.5.5s.5-.2.5-.5v-88c0-.2-.1-.4-.3-.5-.2-.1-.4 0-.5.1l-20.2 20.2c-.1.1-.1.3-.1.4s0 .2.1.4c.2.2.5.2.7 0l19.3-19.4z"/></g><g><path class="st0" d="M157.3 195.5c-2.2 0-4-1.8-4-4v-51.3c0-2.2 1.8-4 4-4s4 1.8 4 4v51.3c0 2.2-1.8 4-4 4z"/><path class="st0" d="M157.3 199c-4.1 0-7.5-3.4-7.5-7.5v-51.3c0-4.1 3.4-7.5 7.5-7.5s7.5 3.4 7.5 7.5v51.3c0 4.1-3.3 7.5-7.5 7.5zm0-59.3c-.3 0-.5.2-.5.5v51.3c0 .3.2.5.5.5s.5-.2.5-.5v-51.3c0-.3-.2-.5-.5-.5z"/></g><g><path class="st0" d="M172 166.2h-58.7c-1.5 0-2.8-.8-3.5-2.1-.7-1.3-.7-2.8.1-4.1l36.7-58.7c1.2-1.9 3.6-2.4 5.5-1.3 1.9 1.2 2.4 3.6 1.3 5.5L120.6 158H172c2.2 0 4 1.8 4 4s-1.8 4.2-4 4.2z"/><path class="st0" d="M172 169.7h-58.7c-2.7 0-5.2-1.5-6.6-3.9-1.3-2.4-1.2-5.3.2-7.6l36.7-58.7c2.2-3.5 6.8-4.6 10.3-2.4 3.5 2.2 4.6 6.8 2.4 10.3l-29.5 47.2H172c4.1 0 7.5 3.4 7.5 7.5s-3.4 7.6-7.5 7.6zM150 103c-.2 0-.3.1-.4.2l-36.7 58.7c-.1.2-.1.3 0 .5s.3.3.4.3H172c.3 0 .5-.2.5-.5s-.2-.5-.5-.5h-57.8l36.2-57.9c.1-.1.1-.3.1-.4 0-.1-.1-.2-.2-.3-.1-.1-.2-.1-.3-.1z"/></g></svg>