<?xml version="1.0" encoding="iso-8859-1"?>
<!-- Generator: Adobe Illustrator 17.0.0, SVG Export Plug-In . SVG Version: 6.00 Build 0)  -->
<!DOCTYPE svg PUBLIC "-//W3C//DTD SVG 1.1//EN" "http://www.w3.org/Graphics/SVG/1.1/DTD/svg11.dtd">
<svg version="1.1" id="Layer_1" xmlns="http://www.w3.org/2000/svg" xmlns:xlink="http://www.w3.org/1999/xlink" x="0px" y="0px"
	 width="536.844px" height="512px" viewBox="-49 141 536.844 512" style="enable-background:new -49 141 536.844 512;"
	 xml:space="preserve">
<path style="fill:#FFE6B8;" d="M251.702,238.649c-24.703-12.763-18.528-24.703-18.528-24.703s-25.03,47.44-118.849,52.657
	l6.18,94.763c1.904,29.193,18.572,55.397,44.206,69.495l0,0c25.71,14.14,56.869,14.14,82.579,0l0,0
	c25.634-14.098,42.302-40.302,44.206-69.495l7.062-108.287C280.213,248.906,261.76,243.846,251.702,238.649z"/>
<g>
	<path style="fill:#FFE6B8;" d="M329.215,474.792c-8.512-1.603-17.271-2.446-26.201-2.446h-29.699L206,539.66l-67.314-67.314h-29.7
		c-8.929,0-17.688,0.843-26.201,2.446L206,598.007L329.215,474.792z"/>
	<line style="fill:none;" x1="206" y1="539.662" x2="180.369" y2="565.293"/>
</g>
<path style="fill:#FC7E29;" d="M222.975,213.945c0,0-6.176,11.94,18.528,24.703c10.058,5.197,28.511,10.256,46.855,14.43
	l1.764-27.056c2.433-37.303-27.168-68.895-64.549-68.895h-59.546c-37.381,0-66.981,31.593-64.549,68.895l2.647,40.581
	C197.945,261.384,222.975,213.945,222.975,213.945z"/>
<path style="fill:#FFC95C;" d="M441.939,587.141c-10.578-58.388-56.153-102.92-112.725-113.572L206,596.784L82.786,473.569
	C26.214,484.221-19.362,528.754-29.939,587.141l-9.862,54.436h491.602L441.939,587.141z"/>
<g>
	<path style="fill:#140F0D;" d="M104.148,267.266l6.181,94.763c2.141,32.837,20.633,61.91,49.468,77.769
		c14.469,7.957,30.333,11.934,46.204,11.934c15.868,0,31.74-3.979,46.204-11.933c28.834-15.86,47.327-44.933,49.468-77.77
		l7.062-108.285v-0.001l1.764-27.058c1.363-20.886-5.769-40.799-20.079-56.072c-14.309-15.274-33.718-23.686-54.647-23.686h-59.546
		c-20.93,0-40.338,8.411-54.647,23.686c-14.309,15.273-21.441,35.186-20.079,56.072L104.148,267.266z M242.373,421.925
		c-22.775,12.526-49.972,12.527-72.747-0.001c-22.7-12.484-37.258-35.372-38.945-61.222l-5.523-84.681
		c57.446-5.269,88.778-26.267,104.215-41.341c4.128,4.734,10.025,9.094,17.645,13.031c8.232,4.253,21.934,8.723,40.798,13.318
		l-6.5,99.673C279.631,386.553,265.074,409.44,242.373,421.925z M275.535,184.56c10.411,11.113,15.601,25.603,14.609,40.798
		l-0.978,14.994c-18.902-4.751-28.216-8.403-32.783-10.763c-11.121-5.747-13.632-10.5-13.699-11.959
		c0.008-0.02,0.013-0.041,0.02-0.061c0.006-0.015,0.013-0.029,0.018-0.044l16.797-44.793
		C265.447,175.606,270.866,179.576,275.535,184.56z M136.465,184.56c10.412-11.113,24.533-17.233,39.762-17.233h59.546
		c1.321,0,2.629,0.063,3.932,0.154l-15.776,42.071c-1.313,2.119-7.634,11.502-22.063,21.244
		c-14.09,9.513-38.767,21.163-78.034,24.871l-1.977-30.308C120.864,210.162,126.054,195.673,136.465,184.56z"/>
	<path style="fill:#140F0D;" d="M461.837,640.983l-9.862-54.435c-5.527-30.507-20.03-58.2-41.943-80.086
		c-21.655-21.629-48.947-36.045-78.924-41.69c-0.001,0-0.003-0.001-0.004-0.001c-9.238-1.74-18.689-2.622-28.09-2.622h-29.699
		c-2.705,0-5.298,1.075-7.212,2.987L206,525.237l-60.102-60.103c-1.913-1.912-4.507-2.987-7.212-2.987h-29.7
		c-9.401,0-18.851,0.882-28.09,2.622c-0.001,0-0.003,0.001-0.004,0.001c-29.978,5.645-57.27,20.061-78.926,41.69
		c-21.912,21.886-36.415,49.579-41.942,80.086l-9.862,54.437c-0.539,2.974,0.27,6.035,2.207,8.355
		c1.938,2.319,4.806,3.661,7.829,3.661h491.602c3.023,0,5.89-1.341,7.829-3.661C461.567,647.018,462.375,643.957,461.837,640.983z
		 M277.539,482.546h25.476c1.321,0,2.642,0.02,3.963,0.061l-50.488,50.488L206,583.582l-14.749-14.749l21.961-21.961
		L277.539,482.546z M134.461,482.546l57.115,57.115l-14.749,14.749l-21.315-21.315l-50.488-50.488
		c1.322-0.041,2.643-0.061,3.963-0.061L134.461,482.546L134.461,482.546z M-27.587,632.602l7.684-42.418
		c9.295-51.308,48.902-92.598,99.378-104.277l119.313,119.312c1.992,1.991,4.602,2.987,7.212,2.987s5.22-0.996,7.212-2.987
		l119.313-119.312c50.475,11.68,90.082,52.971,99.378,104.277l7.684,42.418H-27.587z"/>
</g>
<path style="fill:#090909;" d="M487.088,347.08c-1.75-5.032-6.155-8.65-11.496-9.442l-41.531-6.161l-18.042-37.48
	c-2.363-4.904-7.469-8.073-13.008-8.073c-5.555,0-10.671,3.169-13.034,8.074l-18.048,37.48l-41.534,6.161
	c-5.345,0.798-9.747,4.417-11.491,9.454c-1.725,5.047-0.438,10.54,3.36,14.338l30.498,30.423l-7.077,42.232
	c-0.889,5.386,1.393,10.675,5.948,13.799c2.442,1.687,5.298,2.579,8.259,2.579c2.455,0,4.861-0.613,6.936-1.759l36.184-19.465
	l36.156,19.454c2.104,1.158,4.503,1.77,6.938,1.77c2.981,0,5.845-0.893,8.275-2.577c4.55-3.136,6.82-8.425,5.923-13.806
	l-7.075-42.227l30.498-30.424C487.528,357.636,488.818,352.143,487.088,347.08z M369.64,393.289c0.737-4.437-0.73-8.975-3.916-12.13
	l-27.89-27.85l37.926-5.649c4.763-0.704,8.822-3.667,10.854-7.916l16.395-33.977l16.368,34.003
	c2.049,4.239,6.109,7.188,10.856,7.889l37.931,5.65l-27.868,27.845c-3.205,3.182-4.681,7.718-3.946,12.139l6.446,38.467
	l-32.857-17.675c-2.139-1.174-4.478-1.769-6.954-1.769c-2.42,0-4.817,0.611-6.916,1.759L363.2,431.759L369.64,393.289z"/>
</svg>
