<svg width="211" height="375" viewBox="0 0 211 375" xmlns="http://www.w3.org/2000/svg" xmlns:xlink="http://www.w3.org/1999/xlink"><defs><path id="a" d="M11.67 4h26.17v16.2H11.67z"/></defs><g fill="none" fill-rule="evenodd"><rect stroke="#EFF1F5" stroke-width="2" fill="#FFF" x="1" y="1" width="209" height="373" rx="5"/><path d="M0 5c0-2.76 2.24-5 5-5h201c2.76 0 5 2.23 5 5v9H0V5z" fill="#3CA3E2"/><path fill="#7EC7F6" d="M0 14h211v58H0z"/><path fill="#EFF1F5" opacity=".8" d="M2 72h207v2H2z"/><g transform="translate(185 30)" stroke="#FFF" stroke-width="2"><circle cx="4" cy="4" r="4"/><path d="M6.5 6.5L10 10"/></g><path d="M35.08 29.3c-.26-.3-.36-.68-.3-1.13.07-.45.3-.84.64-1.15.36-.3.76-.46 1.22-.46.45 0 .8.15 1.07.46.28.3.38.7.3 1.15-.05.45-.27.83-.62 1.14-.36.33-.77.48-1.22.48-.45 0-.8-.15-1.08-.47zm-2.52 1.43H31.3c-.54 0-1.03.43-1.1.95l-.54 3.92c-.06.42-.27.8-.62 1.1-.35.32-.74.48-1.18.48-.43 0-.77-.16-1.04-.46-.26-.3-.37-.68-.3-1.12l.32-2.38c0-.47-.35-.84-.84-.84h-1.3c-.48 0-.94.37-1.06.84l-.34 2.38c-.06.44-.27.8-.62 1.12-.35.3-.74.46-1.16.46-.43 0-.78-.16-1.05-.47-.27-.3-.37-.68-.3-1.1l.7-5.2c.1-.5-.2-1.03-.67-1.24l-5.8-2.4c-.36-.15-.76.18-.9.72l-.34 1.3c-.13.56.18 1.18.7 1.4l3.65 1.5-.54 3.92c-.18 1.3.13 2.44.93 3.37.8.94 1.86 1.4 3.17 1.4 1.22 0 2.33-.4 3.33-1.22.8.82 1.8 1.23 3 1.23 1.33 0 2.52-.47 3.58-1.4 1.07-.94 1.7-2.07 1.87-3.38 0 0 .58-4.14.6-4.2.04-.38-.36-.67-.9-.67zm4.04 0h-1.14c-.48 0-.92.38-1 .86l-1.14 8.2c-.04.3.3.58.8.58h1.13c.47 0 .92-.4.98-.86l1.16-8.2c.03-.33-.32-.6-.8-.6zm19.55 1.04c-.65-.77-1.53-1.15-2.65-1.15-1.12 0-2.16.24-3.2 1.12l.74-5.02c.05-.33-.3-.6-.8-.6h-1.16c-.5 0-.94.4-1 .88L46.2 39.8c-.04.32.32.6.8.6h1.17c.47 0 .92-.4 1-.86l.58-4c.12-.8.43-1.4.94-1.82.5-.42 1.04-.63 1.63-.63 1.2 0 1.7.8 1.46 2.37l-.64 4.3c-.04.33.32.6.8.6h1.17c.48 0 .94-.4 1-.87l.72-4.66c.2-1.28-.04-2.3-.7-3.07zM44.93 33.5c.17 0 .3-.1.47-.3l.55-.7c.23-.28.23-.73 0-1.04-.1-.17-.37-.33-.63-.47l-.03-.02c-.83-.44-1.63-.6-2.7-.56-1.16.06-2.14.4-2.93 1-.8.63-1.25 1.42-1.34 2.34-.1.94.23 1.64.95 2.1.34.2.65.37.93.48.28.1.68.23 1.2.38.5.14.9.3 1.14.47.23.15.34.32.32.5-.02.2-.13.37-.32.5-.2.14-.47.2-.8.23-.88.04-1.7-.16-2.47-.6l-.56-.32c-.08-.04-.2-.06-.3-.06-.17 0-.34.1-.44.23l-.8 1.06c-.1.1-.12.24-.1.37.03.13.1.23.2.3.27.2.55.4.82.54.37.2.76.37 1.17.5.76.2 1.52.3 2.25.27 1.1-.04 2.05-.4 2.82-1 .78-.64 1.22-1.46 1.32-2.45.1-1-.2-1.7-.86-2.1-.34-.2-.64-.36-.9-.46-.25-.1-.68-.23-1.27-.4-.57-.15-1-.3-1.23-.43-.22-.1-.3-.26-.3-.47.05-.4.47-.62 1.24-.66.63-.03 1.25.1 1.85.42l.4.23c.15.08.27.1.38.1z" fill="#FFF"/><rect fill="#F5F6F8" x="7" y="182" width="96" height="38" rx="2"/><rect fill="#F5F6F8" x="107" y="182" width="97" height="38" rx="2"/><rect fill="#F5F6F8" x="7" y="330" width="96" height="38" rx="2"/><rect fill="#F5F6F8" x="107" y="330" width="97" height="38" rx="2"/><g transform="translate(120 255)"><path d="M3.2 39.6c.44-.33 1.24-.6 1.8-.6h62c.55 0 1.35.27 1.8.6l2.4 1.8c.44.33.36.6-.2.6H1c-.56 0-.65-.27-.2-.6l2.4-1.8z" fill="#6C7580" opacity=".1"/><rect fill="#111419" x="7" width="58" height="38" rx="3"/><rect fill="#7EC7F5" x="9" y="2" width="54" height="33" rx="1"/><path d="M1 37.57c-.02-.32.23-.57.54-.57h68.92c.3 0 .56.25.54.57l-.03.88c0 .2-.15.4-.33.5 0 0-2.07 1.05-4.18 1.05H5.54c-2.1 0-4.18-1.05-4.18-1.05-.18-.08-.32-.32-.33-.5L1 37.57z" fill="#6C757F"/><path d="M70.97 38.5v-.05l.03-.88c.02-.32-.23-.57-.54-.57H1.54c-.3 0-.56.25-.54.57l.03.88v.05h69.94z" fill="#E6EAEF"/><ellipse fill="#272E38" cx="36" cy="1.32" rx=".49" ry=".49"/><path d="M40 37v.12c0 .76-.34 1.38-.76 1.38h-8.48c-.42 0-.76-.62-.76-1.38V37h10z" fill="#6C7580" opacity=".3"/><path d="M49.62 0H62.2C63.75 0 65 1.25 65 2.8V37H33L49.62 0z" fill="#FFF" opacity=".12"/></g><g transform="translate(36 95)"><rect fill="#ADBACC" x="36" y="29" width="3" height="6" rx="1"/><path d="M9.96 3.38C10.16 1.5 11.86 0 13.7 0h9.6c1.86 0 3.54 1.52 3.74 3.38l.95 8.77c.04.47-.3.85-.76.85H9.76c-.47 0-.8-.38-.75-.85l.96-8.77zm0 57.24c.2 1.87 1.9 3.38 3.75 3.38h9.6c1.86 0 3.54-1.52 3.74-3.38l.95-8.77c.04-.47-.3-.85-.76-.85H9.76c-.47 0-.8.38-.75.85l.96 8.77z" fill="#FFCC3F"/><path d="M27.54 56l.22-2H9.24l.22 2h18.08z" fill="#7D2710" opacity=".08"/><path d="M27.65 9l.1 1H9.26l.1-1h18.3z" fill="#7D2710" opacity=".07"/><path d="M7 54h23c0-7.05 7-11.97 7-22s-7-14.95-7-22H7c0 7.05-7 11.97-7 22s7 14.95 7 22z" fill="#E7EBF0"/><ellipse stroke="#AEBBCD" fill="#FFF" cx="18.5" cy="32" rx="16.5" ry="17"/><path fill="#ADBACC" d="M12.5 26l5 6.5 2 8.5V31"/><ellipse stroke="#DEE3EA" cx="18.5" cy="32" rx="9.5" ry="9"/><circle fill="#ADBACC" opacity=".5" cx="9" cy="12" r="1"/><circle fill="#ADBACC" opacity=".5" cx="28" cy="12" r="1"/><circle fill="#ADBACC" opacity=".5" cx="9" cy="52" r="1"/><circle fill="#ADBACC" opacity=".5" cx="28" cy="52" r="1"/></g><g transform="translate(120 109)"><path d="M1.15 32.3c1.02-1.27 3.17-2.32 4.8-2.35l57.1-.9c1.63-.03 3.78 1 4.8 2.26l.3.4c1.02 1.27.53 2.32-1.1 2.34l-65.1.92c-1.62.02-2.12-1-1.1-2.27l.3-.4z" fill="#EFF1F5"/><path d="M0 27c0-2.76 2.23-5 5-5h61c2.2 0 3.88 1.77 3.2 3.87 0 0 1.63 3.73-9.04 6.13-6.66 1.5-54.62 1.04-54.62 1.04C2.48 33.02 0 30.5 0 27.44V27z" fill="#4FD2AF"/><path d="M.5 23.5c0-4.5.5-16.5 4-18s1 7 8.5 6 6-1.5 7-7S22.5 0 25.5 2s16 14 34 17.5S64 28.93 61 29c-22 .5-35-3.5-40.5-4s-20 3-20-1.5z" fill="#334957"/><rect fill="#18AC78" x="9" y="28" width="12" height="2" rx="1"/><path d="M27 9c.55 0 1-.45 1-1s-.45-1-1-1-1 .45-1 1 .45 1 1 1zm4 3c.55 0 1-.45 1-1s-.45-1-1-1-1 .45-1 1 .45 1 1 1zm4 2c.55 0 1-.45 1-1s-.45-1-1-1-1 .45-1 1 .45 1 1 1zm4 2c.55 0 1-.45 1-1s-.45-1-1-1-1 .45-1 1 .45 1 1 1zm4 2c.55 0 1-.45 1-1s-.45-1-1-1-1 .45-1 1 .45 1 1 1z" fill="#5B7D91"/></g><g transform="translate(30 261)"><use fill="#4C5255" xlink:href="#a"/><use fill="#40464A" xlink:href="#a"/><path d="M.08 25.9C.92 28.3 2.95 30 5.33 30c2.44 0 4.25-1.83 5.32-4.3 1.07-2.45 5.1-9.33 5.1-10.5 0-3.62-12.07-9.34-13.17-6.06-.25.75-2.77 16-2.5 16.75zM6.4 2.3C6.63 1.03 7.86 0 9.17 0h1.97c1.3 0 2.55 1.03 2.8 2.3l.88 4.68H5.5l.9-4.68z" fill="#2E2E2B"/><ellipse fill="#5C626E" cx="10.17" cy="10.56" rx="8" ry="7.98"/><ellipse fill="#2E2E2B" cx="17.75" cy="18.12" rx="5.08" ry="5.07"/><ellipse fill="#5C626E" cx="17.75" cy="18.12" rx="3.92" ry="3.91"/><path d="M49.9 25.9c-.84 2.4-2.88 4.1-5.26 4.1-2.44 0-4.25-1.83-5.32-4.3-1.06-2.45-5.1-9.33-5.1-10.5 0-3.62 12.07-9.34 13.17-6.06.24.75 2.76 16 2.5 16.75zM36.06 2.3c.24-1.27 1.48-2.3 2.8-2.3h1.96c1.3 0 2.54 1.03 2.8 2.3l.88 4.68h-9.33l.9-4.68z" fill="#2E2E2B"/><ellipse fill="#5C626E" cx="39.83" cy="10.56" rx="8" ry="7.98"/><ellipse fill="#2E2E2B" cx="32.08" cy="18.12" rx="5.08" ry="5.07"/><ellipse fill="#5C626E" cx="32.08" cy="18.12" rx="3.92" ry="3.91"/><path d="M6.17 9.23h2.16l1 1.24-1 1.25H6.17v-2.5zm8 0H12l-1 1.24 1 1.25h2.17v-2.5zM11.4 6.48v2.17l-1.23 1-1.25-1V6.48h2.5zM8.93 11.3v2.17l1.25 1 1.24-1V11.3H8.93z" fill="#AAAEB7"/><path fill="#707785" d="M19.5 10.56H22v1.5h-2.5zM27.83 10.56l2.5.83-2.5.65"/><path stroke="#DFB0CD" stroke-width=".5" d="M35.17 9.56H37v1.83h-1.83z"/><path stroke="#00C6C3" stroke-width=".5" d="M38.83 7.48l1-1.74 1 1.74z"/><ellipse stroke="#FFB3C0" stroke-width=".5" cx="43.58" cy="10.47" rx="1.25" ry="1.25"/><path d="M39.08 14.96l1.6-1.58M39.08 13.38l1.6 1.58" stroke="#D8FFFF" stroke-width=".5"/></g><rect fill-opacity=".05" fill="#245986" x="13" y="54" width="32" height="6" rx="2"/><rect fill="#FFF" x="14" y="55" width="30" height="3" rx="1"/><rect fill="#FFF" opacity=".3" x="56" y="55" width="30" height="3" rx="1"/><rect fill="#FFF" opacity=".3" x="98" y="55" width="30" height="3" rx="1"/><rect fill="#A3ABB9" opacity=".2" x="40" y="199" width="30" height="3" rx="1"/><rect fill="#A3ABB9" opacity=".2" x="140" y="199" width="31" height="3" rx="1"/><rect fill="#A3ABB9" opacity=".2" x="40" y="347" width="30" height="3" rx="1"/><rect fill="#A3ABB9" opacity=".2" x="140" y="347" width="31" height="3" rx="1"/><path d="M19.5 204.33l2.9-2.92c.8-.77.8-2.03 0-2.8-.77-.8-2.03-.8-2.8.1h-.2c-.77-.9-2.03-.9-2.8-.1-.8.77-.8 2.03 0 2.8l2.9 2.93zm100 0l2.9-2.92c.8-.77.8-2.03 0-2.8-.77-.8-2.03-.8-2.8.1h-.2c-.77-.9-2.03-.9-2.8-.1-.8.77-.8 2.03 0 2.8l2.9 2.93zm-100 148l2.9-2.92c.8-.77.8-2.03 0-2.8-.77-.8-2.03-.8-2.8.1h-.2c-.77-.9-2.03-.9-2.8-.1-.8.77-.8 2.03 0 2.8l2.9 2.93zm100 0l2.9-2.92c.8-.77.8-2.03 0-2.8-.77-.8-2.03-.8-2.8.1h-.2c-.77-.9-2.03-.9-2.8-.1-.8.77-.8 2.03 0 2.8l2.9 2.93z" fill="#A3ABB9"/></g></svg>