<?xml version="1.0" encoding="utf-8"?>
<!-- Generator: Adobe Illustrator 19.0.1, SVG Export Plug-In . SVG Version: 6.00 Build 0)  -->
<!DOCTYPE svg PUBLIC "-//W3C//DTD SVG 1.1//EN" "http://www.w3.org/Graphics/SVG/1.1/DTD/svg11.dtd">
<svg version="1.1" id="Layer_1" xmlns="http://www.w3.org/2000/svg" xmlns:xlink="http://www.w3.org/1999/xlink" x="0px" y="0px"
	 viewBox="0 0 144 144" style="enable-background:new 0 0 144 144;" xml:space="preserve">
<style type="text/css">
	.st0{fill:#E2231A;}
	.st1{fill-rule:evenodd;clip-rule:evenodd;fill:#E2231A;}
</style>
<g>
	<g>
		<path class="st0" d="M11.3,78l-0.1-2.5c-0.1-1.7,1-2.9,2.7-3c1.7-0.1,2.9,0.9,3,2.6l0.1,1.3l4.7-0.3l0.1,1.1L11.3,78z M16,76.6
			l-0.1-1.2c-0.1-1.1-0.7-1.8-2-1.7c-1.3,0.1-1.9,0.8-1.8,1.9l0.1,1.2L16,76.6z"/>
		<path class="st0" d="M22.4,63.6c-0.3,1.8-2,2.7-5.8,2c-3.9-0.6-5.1-2.1-4.8-3.8c0.3-1.8,2-2.7,5.8-2
			C21.4,60.5,22.7,61.9,22.4,63.6z M12.7,62c-0.2,1,0.6,2,4.1,2.5c3.5,0.6,4.5-0.1,4.7-1.1c0.2-1-0.6-2-4.1-2.5
			C13.8,60.3,12.8,61,12.7,62z"/>
		<path class="st0" d="M14.8,50.7l1-2.3c0.7-1.6,2-2.3,3.6-1.6c1.1,0.5,1.8,1.3,1.7,2.6l5.5,0.4l-0.5,1.1l-5.2-0.4l-0.5,1.4l4.5,1.9
			l-0.4,1L14.8,50.7z M19.5,51.4l0.4-0.9c0.6-1.5,0.3-2.2-0.8-2.7c-1.1-0.5-1.9-0.2-2.5,1.3L16.1,50L19.5,51.4z"/>
		<path class="st0" d="M23.7,34.6l0.8,0.6l-1.2,1.8l7.8,5.5l-0.7,0.9l-7.8-5.5l-1.2,1.8l-0.8-0.6L23.7,34.6z"/>
		<path class="st0" d="M36.6,24.1c-0.5-0.6-0.4-1.4,0.4-2c0.8-0.6,1.6-0.3,2,0.3l1.7,2.4c0.5,0.6,0.4,1.4-0.4,2
			c-0.8,0.6-1.6,0.3-2-0.3L36.6,24.1z M39,25.9c0.2,0.3,0.5,0.4,0.8,0.2c0.3-0.2,0.3-0.5,0.1-0.8L38.2,23c-0.2-0.3-0.5-0.4-0.8-0.2
			c-0.3,0.2-0.3,0.5-0.1,0.8L39,25.9z"/>
		<path class="st0" d="M44.7,23.9l-2.6-4.9l2.4-1.3l0.4,0.7l-1.5,0.8l0.7,1.3l1.1-0.6l0.4,0.7l-1.1,0.6l1.2,2.2L44.7,23.9z"/>
		<path class="st0" d="M63.1,14.8c-0.4-1.6-1.1-2.2-2-2c-1.3,0.2-1.7,1.5-1.1,4.7c0.6,3.2,1.4,4.3,2.7,4c1-0.2,1.5-1,1.2-2.9
			l1.1-0.2c0.4,2.3-0.4,3.8-2.1,4.1c-1.8,0.3-3.3-0.9-4-4.8c-0.7-3.9,0.2-5.5,2-5.9c1.5-0.3,2.7,0.6,3.3,2.8L63.1,14.8z"/>
		<path class="st0" d="M73.2,11l0,10.5l-1.1,0L72,11L73.2,11z"/>
		<path class="st0" d="M83.6,12.1l1.1,8.1l0,0l1.6-7.6l1.1,0.2l-2.2,10.3L84,23l-1.3-9.6l0,0l-1.9,9L79.7,22l2.2-10.3L83.6,12.1z"/>
		<path class="st0" d="M98.2,20.4c0.6-1.6,0.4-2.4-0.4-2.8c-1.2-0.6-2.2,0.2-3.6,3.2c-1.4,3-1.4,4.3-0.2,4.8c1,0.5,1.8,0.1,2.7-1.7
			l1,0.5c-1,2.1-2.5,2.8-4.1,2.1c-1.7-0.8-2.1-2.6-0.4-6.2c1.7-3.6,3.4-4.4,5.1-3.6c1.4,0.7,1.8,2.1,1,4.2L98.2,20.4z"/>
		<path class="st0" d="M108.8,23.3l-6.3,8.5l-0.9-0.7l6.3-8.5L108.8,23.3z"/>
		<path class="st0" d="M116.4,30.2l-3.9,7.2l0,0l5.7-5.2l0.8,0.8l-7.8,7.1l-0.8-0.9l4.6-8.6l0,0l-6.8,6.2l-0.8-0.8l7.8-7.1
			L116.4,30.2z"/>
		<path class="st0" d="M124.9,41.7l-5.5,6.1l0,0l6.8-3.7l0.5,1l-9.2,5.1l-0.6-1.1l6.4-7.3l0,0l-8,4.4l-0.5-1l9.2-5.1L124.9,41.7z"/>
		<path class="st0" d="M130.9,56.1l-9.5,5.1l-0.3-1.1l2.8-1.5l-0.7-2.6l-3.2,0.2l-0.3-1.1l10.8-0.6L130.9,56.1z M124.2,55.9l0.6,2.3
			l5.1-2.7l0,0L124.2,55.9z"/>
		<path class="st0" d="M133,70.1l-1,0.1l-0.2-2.2l-9.5,0.7l-0.1-1.1l9.5-0.7l-0.2-2.2l1-0.1L133,70.1z"/>
		<path class="st0" d="M132.6,78.9l-10.5-1.1l0.1-1.1l10.5,1.1L132.6,78.9z"/>
	</g>
	<g>
		<path class="st0" d="M28.2,96.3l-5.3,6.2l0,0l6.7-3.9l0.6,1l-9.1,5.3l-0.6-1.1l6.3-7.4l0,0l-7.9,4.6l-0.6-1l9.1-5.3L28.2,96.3z"/>
		<path class="st0" d="M37.1,108l-0.7,0.7l-2.5-2.7l-2.6,2.4l1.9,2l-0.7,0.7l-1.9-2l-3,2.8l2.6,2.8l-0.7,0.7l-3.4-3.6l7.7-7.2
			L37.1,108z"/>
		<path class="st0" d="M41.7,112l-3.5,7.6l0,0l5.8-6l0.8,0.5l-3.2,7.8l0,0l5.5-6.2l0.9,0.6l-7.2,7.9l-0.8-0.5l3.2-7.8l0,0l-5.9,6
			l-0.8-0.5l4.3-9.8L41.7,112z"/>
		<path class="st0" d="M52.9,118.4l2.3,0.8c1.6,0.6,2.3,2,1.7,3.7c-0.6,1.6-2,2.3-3.6,1.8l-1.3-0.5l-1.6,4.5l-1.1-0.4L52.9,118.4z
			 M52.4,123.3l1.1,0.4c1.1,0.4,1.9,0,2.3-1.2c0.4-1.2,0-2-1.1-2.4l-1.1-0.4L52.4,123.3z"/>
		<path class="st0" d="M64.8,132.3c-1.8-0.2-2.8-1.8-2.3-5.7c0.5-3.9,1.8-5.2,3.6-5s2.8,1.8,2.3,5.7
			C67.9,131.2,66.6,132.5,64.8,132.3z M66,122.5c-1-0.1-1.9,0.7-2.3,4.2c-0.4,3.5,0.3,4.5,1.3,4.6c1,0.1,1.9-0.7,2.3-4.2
			C67.7,123.6,67,122.6,66,122.5z"/>
		<path class="st0" d="M75,122l2.5-0.3c1.7-0.2,3,0.7,3.2,2.4c0.1,1.2-0.3,2.2-1.4,2.8l2.3,5l-1.2,0.1l-2.2-4.8l-1.5,0.2l0.5,4.9
			l-1.1,0.1L75,122z M76.6,126.5l1-0.1c1.6-0.2,2.1-0.9,1.9-2c-0.1-1.2-0.7-1.8-2.3-1.6l-1,0.1L76.6,126.5z"/>
		<path class="st0" d="M90.5,118.6l0.3,0.9l-2,0.7l3,9.1l-1.1,0.4l-3-9.1l-2,0.7l-0.3-0.9L90.5,118.6z"/>
		<path class="st0" d="M100,124.2l0.7,1.3l0.2,2.3l-0.4,0.2l-0.4-2.2l-0.5,0.3l-0.6-1.2L100,124.2z"/>
		<path class="st0" d="M107.9,107l3.9,3.6l0,0l-1.9-5.8l0.8-0.9l1.3,4l6.7,2.9l-0.8,0.9l-5.5-2.4l0,0l0.9,2.7l2.4,2.2l-0.8,0.8
			l-7.7-7.2L107.9,107z"/>
		<path class="st0" d="M114.3,98.9l4.9,0.8l-3.1-3.8l0.6-1.1l4,5.2l3.8,2.3l-0.6,1l-3.8-2.3l-6.5-1L114.3,98.9z"/>
	</g>
	<g>
		<g>
			<path class="st1" d="M71.9,74.6c-1.2,0-0.6-1-2.7-2c-4.1-1.8-10.7-2.7-11.5-10.7c-0.5-0.3-0.9-0.6-1.3-1c0.8-2.5,2.5-5.6,4.6-6.7
				c-0.3,1.8-0.3,4.6,1.5,7.6c-0.4,0.3-1.1,0.4-1.8,0.3c0.1,2.7,2.4,5.3,5.8,6.2c2.9,0.7,3.8-1.4,4-4.5c0.2-2.8,0.4-11.4,0.4-14.1
				l-7.4,0c-0.3,0.4-0.8,0.7-1.4,0.7c-0.9,0-1.7-0.8-1.7-1.7c0-0.9,0.8-1.7,1.7-1.7c0.6,0,1.1,0.3,1.4,0.7l5.1,0
				c-0.7-0.8-1.1-1.8-1.1-2.9c0-2.4,2-4.3,4.5-4.2c2.5,0,4.4,1.9,4.4,4.3c0,1.1-0.4,2.1-1.1,2.8l5.1,0c0.3-0.4,0.8-0.7,1.4-0.7
				c0.9,0,1.7,0.8,1.7,1.7c0,0.9-0.8,1.7-1.7,1.7c-0.6,0-1.1-0.3-1.4-0.7l-7.4,0c0,2.7,0.2,11.3,0.3,14.1c0.2,3.1,1.1,5.3,4,4.5
				c3.4-0.9,5.7-3.4,5.9-6.1c-0.7,0.1-1.4,0-1.8-0.3c1.7-3,1.8-5.8,1.5-7.6c2.1,1.1,3.8,4.3,4.6,6.8c-0.4,0.4-0.8,0.7-1.3,1
				c-0.9,8-7.5,8.9-11.6,10.6C72.5,73.5,73.1,74.6,71.9,74.6 M72,42.6c-1.3,0-2.3,1-2.3,2.2c0,1.2,1,2.2,2.3,2.2
				c1.3,0,2.3-1,2.3-2.2C74.3,43.6,73.2,42.7,72,42.6"/>
		</g>
	</g>
	<g>
		<path class="st0" d="M72,144c-0.6,0-1.2,0-1.8,0C30.5,143-1,109.9,0,70.2C0.5,51,8.4,33.1,22.4,19.8C36.3,6.6,54.6-0.4,73.8,0
			C113.5,1,145,34.1,144,73.8C143,112.9,110.9,144,72,144z M72,1.5c-18.2,0-35.4,6.9-48.6,19.4C9.7,33.9,1.9,51.4,1.5,70.2
			c-1,38.9,29.9,71.3,68.8,72.3c0.6,0,1.2,0,1.8,0c38.1,0,69.5-30.5,70.5-68.8l0.7,0l-0.7,0c1-38.9-29.9-71.3-68.8-72.3
			C73.2,1.5,72.6,1.5,72,1.5z"/>
	</g>
	<path class="st0" d="M40.8,31.4l0.9,1.2c2.3-1.8,4.7-3.3,7.3-4.7l-0.5-1.4C45.7,27.9,43.2,29.5,40.8,31.4z"/>
	<path class="st0" d="M108.7,86.3c-1,0.9-2.2,1.5-3.6,1.4c-1.4,0-2.6-0.6-3.6-1.5c-1.3-1.3-2.9-2-4.7-2s-3.5,0.7-4.8,1.9
		c-1,0.9-2.2,1.5-3.6,1.4c-1.3,0-2.6-0.6-3.6-1.5c-2.6-2.7-6.9-2.7-9.5-0.1c-1,0.9-2.2,1.5-3.6,1.4c-1.3,0-2.6-0.6-3.6-1.5
		c-2.6-2.7-6.9-2.7-9.5-0.1c-1,0.9-2.2,1.5-3.6,1.4c-1.3,0-2.6-0.6-3.6-1.5c-1.3-1.3-2.9-2-4.7-2c-1.8,0-3.5,0.7-4.8,1.9
		c-2,1.9-5.2,1.9-7.1-0.1c-1.3-1.3-2.9-2-4.6-2c0.2,0.6,0.3,1.1,0.5,1.7c1.1,0.2,2.1,0.6,2.9,1.5c1.3,1.3,3,2,4.7,2
		c1.7,0,3.4-0.6,4.8-1.9c2-1.9,5.2-1.9,7.1,0.1c1.3,1.3,2.9,2,4.7,2c1.8,0,3.5-0.7,4.8-1.9c2-1.9,5.2-1.9,7.1,0.1
		c1.3,1.3,2.9,2,4.7,2c1.8,0,3.5-0.7,4.8-1.9c2-1.9,5.2-1.9,7.1,0.1c1.3,1.3,2.9,2,4.7,2c1.8,0,3.5-0.7,4.8-1.9
		c2-1.9,5.2-1.9,7.1,0.1c1.3,1.3,3,2,4.7,2c1.7,0,3.4-0.6,4.8-1.9c0.8-0.8,1.9-1.3,2.9-1.4c0.2-0.6,0.4-1.1,0.5-1.7
		C111.7,84.4,110,85,108.7,86.3z"/>
	<path class="st0" d="M108.5,94.7c-1,0.9-2.2,1.5-3.6,1.4c-1.4,0-2.6-0.6-3.6-1.5c-1.3-1.3-2.9-2-4.7-2c-1.8,0-3.5,0.7-4.8,1.9
		c-1,0.9-2.2,1.5-3.6,1.4c-1.3,0-2.6-0.6-3.6-1.5c-2.6-2.7-6.9-2.7-9.5-0.1c-1,0.9-2.2,1.5-3.6,1.4c-1.3,0-2.6-0.6-3.6-1.5
		c-2.6-2.7-6.9-2.7-9.5-0.1c-1,0.9-2.2,1.5-3.6,1.4c-1.3,0-2.6-0.6-3.6-1.5c-1.3-1.3-2.9-2-4.7-2c-1.8,0-3.5,0.7-4.8,1.9
		c-1.9,1.9-5.1,1.9-7,0c0.6,1,1.2,1.9,1.8,2.9c0.5,0.1,1,0.2,1.6,0.2c1.7,0,3.4-0.6,4.8-1.9c2-1.9,5.2-1.9,7.1,0.1
		c1.3,1.3,2.9,2,4.7,2c1.8,0,3.5-0.7,4.8-1.9c2-1.9,5.2-1.9,7.1,0.1c1.3,1.3,2.9,2,4.7,2c1.8,0,3.5-0.7,4.8-1.9
		c2-1.9,5.2-1.9,7.1,0.1c1.3,1.3,2.9,2,4.7,2c1.8,0,3.5-0.7,4.8-1.9c2-1.9,5.2-1.9,7.1,0.1c1.3,1.3,3,2,4.7,2c0.6,0,1.2-0.1,1.8-0.2
		c0.8-1,1.5-2.1,2.1-3.2C108.7,94.5,108.6,94.6,108.5,94.7z"/>
	<path class="st0" d="M101.1,103.1c-1.3-1.3-2.9-2-4.7-2s-3.5,0.7-4.8,1.9c-1,0.9-2.2,1.5-3.6,1.4c-1.3,0-2.6-0.6-3.6-1.5
		c-2.6-2.7-6.9-2.7-9.5-0.1c-1,0.9-2.2,1.5-3.6,1.4c-1.3,0-2.6-0.6-3.6-1.5c-2.6-2.7-6.9-2.7-9.5-0.1c-1,0.9-2.2,1.5-3.6,1.4
		c-1.3,0-2.6-0.6-3.6-1.5c-1.3-1.3-2.9-2-4.7-2c-1.8,0-3.5,0.7-4.8,1.9c0,0-0.1,0.1-0.1,0.1c0.4,0.4,0.8,0.8,1.2,1.2
		c0,0,0.1-0.1,0.1-0.1c2-1.9,5.2-1.9,7.1,0.1c1.3,1.3,2.9,2,4.7,2c1.8,0,3.5-0.7,4.8-1.9c2-1.9,5.2-1.9,7.1,0.1c1.3,1.3,2.9,2,4.7,2
		c1.8,0,3.5-0.7,4.8-1.9c2-1.9,5.2-1.9,7.1,0.1c1.3,1.3,2.9,2,4.7,2c1.8,0,3.5-0.7,4.8-1.9c2-1.9,5.2-1.9,7.1,0.1
		c0.1,0.1,0.2,0.2,0.3,0.3c0.4-0.4,0.8-0.7,1.2-1.1C101.4,103.4,101.2,103.3,101.1,103.1z"/>
	<path class="st0" d="M84.3,111.4c-2.6-2.7-6.9-2.7-9.5-0.1c-1,0.9-2.2,1.5-3.6,1.4c-1.3,0-2.6-0.6-3.6-1.5
		c-2.6-2.7-6.9-2.7-9.5-0.1c-0.5,0.5-1.1,0.9-1.7,1.1c0.7,0.3,1.4,0.5,2.1,0.7c0.3-0.2,0.6-0.4,0.8-0.7c2-1.9,5.2-1.9,7.1,0.1
		c1.3,1.3,2.9,2,4.7,2c1.8,0,3.5-0.7,4.8-1.9c2-1.9,5.2-1.9,7.1,0.1c0.3,0.3,0.6,0.6,1,0.8c0.8-0.2,1.5-0.5,2.2-0.7
		C85.5,112.4,84.8,112,84.3,111.4z"/>
</g>
</svg>
