<svg id="Layer_1" data-name="Layer 1" xmlns="http://www.w3.org/2000/svg" viewBox="0 0 249.92 104.06"><defs><style>.cls-1{fill:black;}</style></defs><title>open-culture-stacked-logo</title><path class="cls-1" d="M30,.14C46.44.14,59.88,13.29,59.88,29.4S46.44,58.66,30,58.66C13.71,58.66.06,45.51.06,29.4S13.71.14,30,.14Zm0,44.57A15.14,15.14,0,0,0,45.28,29.4,15.32,15.32,0,1,0,30,44.72Z" transform="translate(-0.06 -0.14)"/><path class="cls-1" d="M74.18,1.23H99c15,0,22.11,10.26,22.11,21.6,0,11.92-7.15,22-22.11,22H88.63V57.58H74.18ZM88.63,14.38V31.64h9.61c6.07,0,8.31-3.76,8.31-8.74,0-4.48-2.24-8.52-8.31-8.52Z" transform="translate(-0.06 -0.14)"/><path class="cls-1" d="M136.46,1.23h43.27v14H150.9v8.09h23.7V36.41H150.9v7.22h28.83V57.58H136.46Z" transform="translate(-0.06 -0.14)"/><path class="cls-1" d="M197.94,57.58V1.23h12.28l25.14,31.5V1.23h14.38V57.58H237.52L212.38,26.15V57.58Z" transform="translate(-0.06 -0.14)"/><path class="cls-1" d="M34.87,94.67A17.51,17.51,0,1,1,19.12,69.73a17.75,17.75,0,0,1,15.71,9.45l-7.75,3.49a9,9,0,1,0,0,8.6Z" transform="translate(-0.06 -0.14)"/><path class="cls-1" d="M72.73,70.37V89.05c0,8.56-5.36,15.15-15.28,15.15s-15.24-6.6-15.24-15.15V70.37h8.51V88.54c0,4.81,2.3,7.45,6.73,7.45s6.81-2.64,6.81-7.45V70.37Z" transform="translate(-0.06 -0.14)"/><path class="cls-1" d="M82.68,70.37h8.47v25h15.92v8.22H82.68Z" transform="translate(-0.06 -0.14)"/><path class="cls-1" d="M107.17,70.37h29.2v8.26H126v24.94h-8.51V78.62H107.17Z" transform="translate(-0.06 -0.14)"/><path class="cls-1" d="M175.45,70.37V89.05c0,8.56-5.36,15.15-15.28,15.15s-15.24-6.6-15.24-15.15V70.37h8.51V88.54c0,4.81,2.3,7.45,6.73,7.45S167,93.35,167,88.54V70.37Z" transform="translate(-0.06 -0.14)"/><path class="cls-1" d="M202.34,70.37c8.51,0,12.43,5.53,12.43,12.13,0,4.64-2.09,9-6.56,11l7.19,10H205.24l-6.3-8.9H194.6v8.9h-8.47V70.37Zm-7.75,7.75V87h7.28c3.41,0,4.68-2.09,4.68-4.38,0-2.55-1.28-4.47-4.68-4.47Z" transform="translate(-0.06 -0.14)"/><path class="cls-1" d="M224.48,70.37H250v8.26H233v4.77h14v7.7H233v4.26h17v8.22h-25.5Z" transform="translate(-0.06 -0.14)"/></svg>