<?xml version="1.0" encoding="utf-8"?>
<!-- Generator: Adobe Illustrator 21.0.2, SVG Export Plug-In . SVG Version: 6.00 Build 0)  -->
<svg version="1.1" id="Layer_1" xmlns="http://www.w3.org/2000/svg" xmlns:xlink="http://www.w3.org/1999/xlink" x="0px" y="0px"
	 viewBox="0 0 24 33" style="enable-background:new 0 0 24 33;" xml:space="preserve">
<g fill="#fff">
	<g>
		<path d="M16.2,26.7c0,0-0.1,0-0.1,0L12,23.5l-4.1,3.1c-0.1,0.1-0.2,0.1-0.3,0.1c-0.1,0-0.2,0-0.3-0.1c-0.1-0.1-0.1-0.2-0.2-0.3
			c0-0.1,0-0.2,0-0.3l1.7-5l-3.9-3c-0.1-0.1-0.1-0.2-0.2-0.3c0-0.1,0-0.2,0-0.3c0-0.1,0.1-0.1,0.2-0.2c0.1-0.1,0.2-0.1,0.3-0.1h4.7
			l1.7-4.7c0-0.1,0.1-0.1,0.2-0.2c0.1-0.1,0.2-0.1,0.3-0.1c0.1,0,0.2,0,0.3,0.1s0.1,0.1,0.2,0.2l1.7,4.7h4.7c0.1,0,0.2,0,0.3,0.1
			c0.1,0.1,0.1,0.1,0.2,0.2c0,0.1,0,0.2,0,0.3c0,0.1-0.1,0.2-0.1,0.2l-3.9,3.1l1.6,5c0,0.1,0,0.2,0,0.3c0,0.1-0.1,0.2-0.2,0.2
			c0,0.1,0,0.1-0.1,0.1c0,0-0.1,0-0.1,0C16.3,26.7,16.3,26.7,16.2,26.7z M12.1,22.5c0,0,0.1,0,0.1,0.1l3.2,2.4l-1.3-4
			c0-0.1,0-0.2,0-0.3c0-0.1,0.1-0.2,0.1-0.2l3.1-2.4h-3.7c-0.1,0-0.2,0-0.3-0.1c-0.1-0.1-0.1-0.1-0.2-0.2L12,14.1l-1.3,3.8
			c0,0.1-0.1,0.2-0.2,0.2c-0.1,0.1-0.2,0.1-0.3,0.1H6.5l3.1,2.4c0.1,0.1,0.1,0.1,0.1,0.2c0,0.1,0,0.2,0,0.3l-1.3,4l3.2-2.4
			c0.1,0,0.2,0,0.2,0c0,0,0.1,0,0.2,0C12,22.5,12.1,22.5,12.1,22.5z"/>
	</g>
	<path d="M23.7,8.6c0,0.1,0.1,0.2,0.1,0.2C23.8,8.9,23.9,9,24,9v22.6c0,0.3-0.1,0.6-0.3,0.8c-0.2,0.2-0.5,0.3-0.7,0.3H1
		c-0.3,0-0.6-0.1-0.8-0.3C0.1,32.1,0,31.8,0,31.6V1.4c0-0.3,0.1-0.6,0.3-0.8C0.5,0.4,0.8,0.4,1,0.4h14.1c0.1,0,0.2,0,0.2,0
		c0.1,0,0.1,0,0.2,0.1c0,0,0,0.1,0.1,0.1c0,0,0.1,0.1,0.2,0.2l7.6,7.7c0.1,0,0.2,0,0.2,0.1C23.7,8.5,23.7,8.6,23.7,8.6z M2,30.6
		h19.9V10.1h-6.7c-0.3,0-0.6-0.1-0.8-0.3C14.1,9.6,14,9.3,14,9V2.4H2v28.1V30.6z M16.1,3.8v4.3h4.3L16.1,3.8z"/>
</g>
</svg>
