<?xml version="1.0" encoding="utf-8"?>
<!-- Generator: Adobe Illustrator 19.2.1, SVG Export Plug-In . SVG Version: 6.00 Build 0)  -->
<svg version="1.1" id="Layer_1" xmlns="http://www.w3.org/2000/svg" xmlns:xlink="http://www.w3.org/1999/xlink" x="0px" y="0px"
	 viewBox="0 0 480 480" style="enable-background:new 0 0 480 480;" xml:space="preserve">
<style type="text/css">
	.st0{display:none;}
	.st1{display:inline;fill:#4D4D4D;}
	.st2{opacity:0.6;}
	.st3{fill:#F0F0F0;}
</style>
<g id="Background" class="st0">
	<rect x="-240" y="-40" class="st1" width="960" height="560"/>
</g>
<g id="Layer_1_1_" class="st2">
	<g>
		<path class="st3" d="M240,480C107.7,480,0,372.3,0,240S107.7,0,240,0s240,107.7,240,240S372.3,480,240,480z M240,32.5
			C125.6,32.5,32.5,125.6,32.5,240S125.6,447.5,240,447.5S447.5,354.4,447.5,240S354.4,32.5,240,32.5z"/>
		<path class="st3" d="M407.3,235.3c-2.2-20.3-18.9-36.6-39.2-38.4c-11.6-1.1-22.3,2.4-30.7,8.9c-3.1,2.4-7.4,2.7-10.8,0.7
			l-97.3-56.2c-3.5-2-5.3-6-4.7-10c0.6-4.1,0.6-8.5-0.1-12.9c-3-19.6-19.3-34.9-39-36.7c-25.9-2.3-47.2,18-47.2,43.4
			c0,18.4,9.9,34.1,26.6,40.5c3.8,1.5,5.2,5.1,5.2,9.1v112.6c0,4.1-1.4,7.7-5.2,9.1c-16.7,6.4-27.1,22-27.1,40.4
			c-0.1,21.7,16.5,40.6,38,43.3c26.6,3.3,49.3-17.3,49.3-43.2c0-2-0.1-4-0.4-5.9c-0.6-4,1.3-7.9,4.8-9.9l97.2-56.1
			c3.5-2,7.7-1.7,10.9,0.8c7.3,5.7,16.5,9,26.5,9C389.7,283.8,410.2,261.6,407.3,235.3z M315.3,246.6l-105.1,59.3
			c-5.3,3-14.2-0.8-14.2-6.8V180.5c0-6.1,8.9-9.9,14.2-6.8L314.1,233C319.4,236,320.5,243.6,315.3,246.6z"/>
	</g>
</g>
</svg>
